# xmcd
#
# Track frame offsets: 
#        150
#        18350
#        38159
#        57256
#        80173
#        102750
#        125651
#        144906
#        164971
#        181734
#        205662
#
# Disc length: 3044 seconds
#
# Revision: 1
# Processed by: cddbd v1.5.2PL0 Copyright (c) Steve Scherf et al.
# Submitted via: ExactAudioCopy v0.95b3
#
DISCID=940be20b
DTITLE=Jimmy Thackery and The Drivers - Sinner Street
DYEAR=2000
DGENRE=Blues
TTITLE0=Grab The Rafters
TTITLE1=Bad News
TTITLE2=Sinner Street
TTITLE3=Lovin' My Money
TTITLE4=Chained To The Blues Line
TTITLE5=Detroit Iron
TTITLE6=Hundreds Into Ones
TTITLE7=Never Enough
TTITLE8=Million Dollar Bill
TTITLE9=Havin' A Heart
TTITLE10=Blues 'Fore Dawn
EXTD=YEAR:2000, Blind Pig
EXTT0=
EXTT1=
EXTT2=
EXTT3=
EXTT4=
EXTT5=
EXTT6=
EXTT7=
EXTT8=
EXTT9=
EXTT10=
PLAYORDER=
